<svg preserveAspectRatio="none" width="100%" height="100%" overflow="visible" style="display: block;" viewBox="0 0 288 352" fill="none" xmlns="http://www.w3.org/2000/svg">
<path id="Union" fill-rule="evenodd" clip-rule="evenodd" d="M144 0C197.019 0 240 42.9807 240 96C240 108.84 237.478 121.09 232.904 132.284C230.636 137.835 234.286 144.537 240.09 146.04C267.648 153.176 288 178.211 288 208C288 243.346 259.346 272 224 272C215.163 272 208 279.163 208 288C208 323.346 179.346 352 144 352C108.654 352 80 323.346 80 288C80 279.163 72.8366 272 64 272C28.6538 272 0 243.346 0 208C0 178.211 20.3517 153.176 47.9093 146.04C53.7135 144.537 57.363 137.835 55.0953 132.285C50.5214 121.09 48 108.84 48 96C48 42.9807 90.9807 0 144 0Z" fill="var(--fill-0, #EFEEF2)"/>
</svg>
