<svg preserveAspectRatio="none" width="100%" height="100%" overflow="visible" style="display: block;" viewBox="0 0 22 22" fill="none" xmlns="http://www.w3.org/2000/svg">
<g id="AI" clip-path="url(#clip0_151_3041)">
<path id="Vector" d="M7.79842 9.10699C8.11565 9.02515 8.40516 8.8598 8.63682 8.62814C8.86848 8.39648 9.03383 8.10697 9.11567 7.78974L10.5658 2.16599C10.5931 2.07005 10.6509 1.9856 10.7304 1.92547C10.81 1.86534 10.907 1.83281 11.0068 1.83281C11.1065 1.83281 11.2035 1.86534 11.2831 1.92547C11.3626 1.9856 11.4204 2.07005 11.4477 2.16599L12.8988 7.78974C12.9805 8.10686 13.1457 8.39629 13.3772 8.62794C13.6087 8.85959 13.898 9.02501 14.2151 9.10699L19.8388 10.5572C19.9352 10.5841 20.02 10.6418 20.0805 10.7215C20.1409 10.8012 20.1736 10.8985 20.1736 10.9985C20.1736 11.0986 20.1409 11.1958 20.0805 11.2755C20.02 11.3552 19.9352 11.413 19.8388 11.4399L14.2151 12.8892C13.8979 12.971 13.6083 13.1363 13.3767 13.368C13.145 13.5997 12.9797 13.8892 12.8978 14.2064L11.4486 19.8302C11.4219 19.9269 11.3642 20.0121 11.2844 20.0729C11.2046 20.1337 11.1071 20.1666 11.0068 20.1666C10.9064 20.1666 10.8089 20.1337 10.7291 20.0729C10.6493 20.0121 10.5916 19.9269 10.5649 19.8302L9.11567 14.2064C9.03383 13.8892 8.86848 13.5997 8.63682 13.368C8.40516 13.1363 8.11565 12.971 7.79842 12.8892L2.17467 11.439C2.07834 11.412 1.99348 11.3543 1.93303 11.2746C1.87258 11.1949 1.83985 11.0976 1.83985 10.9976C1.83985 10.8976 1.87258 10.8003 1.93303 10.7206C1.99348 10.6409 2.07834 10.5832 2.17467 10.5562L7.79842 9.10699Z" stroke="var(--stroke-0, #B8D8FF)" stroke-width="1.83333" stroke-linecap="round" stroke-linejoin="round"/>
<path id="Vector_2" d="M19.256 18.3289L15.5894 18.3289" stroke="var(--stroke-0, #B8D8FF)" stroke-width="1.83333" stroke-linecap="round" stroke-linejoin="round"/>
<path id="Vector_3" d="M17.4236 20.1635L17.4236 16.4969" stroke="var(--stroke-0, #B8D8FF)" stroke-width="1.83333" stroke-linecap="round" stroke-linejoin="round"/>
<path id="Vector_4" d="M6.42351 3.66093L4.59018 3.66093" stroke="var(--stroke-0, #B8D8FF)" stroke-width="1.83333" stroke-linecap="round" stroke-linejoin="round"/>
<path id="Vector_5" d="M5.5059 4.5802L5.5059 2.74687" stroke="var(--stroke-0, #B8D8FF)" stroke-width="1.83333" stroke-linecap="round" stroke-linejoin="round"/>
</g>
<defs>
<clipPath id="clip0_151_3041">
<rect width="22" height="22" fill="white"/>
</clipPath>
</defs>
</svg>
