<svg preserveAspectRatio="none" width="100%" height="100%" overflow="visible" style="display:block;" viewBox="0 0 392 27" fill="none" xmlns="http://www.w3.org/2000/svg">
  <g filter="url(#inner)">
    <path d="M13.5 13.5L378.5 13.5" stroke="#EFEEF2" stroke-width="7" stroke-linecap="round"/>
  </g>
  <g opacity="0.9" filter="url(#blur)">
    <path d="M73.5 17C75.433 17 77 15.433 77 13.5C77 11.567 75.433 10 73.5 10L73.5 13.5L73.5 17ZM13.5 13.5L13.5 17L73.5 17L73.5 13.5L73.5 10L13.5 10L13.5 13.5Z" fill="#DEC0F8"/>
  </g>
  <path d="M73.5 17C75.433 17 77 15.433 77 13.5C77 11.567 75.433 10 73.5 10L73.5 13.5L73.5 17ZM13.5 13.5L13.5 17L73.5 17L73.5 13.5L73.5 10L13.5 10L13.5 13.5Z" fill="#DEC0F8"/>
  <defs>
    <filter id="inner" x="10" y="10" width="372" height="7" filterUnits="userSpaceOnUse" color-interpolation-filters="sRGB">
      <feFlood flood-opacity="0" result="BackgroundImageFix"/>
      <feBlend mode="normal" in="SourceGraphic" in2="BackgroundImageFix" result="shape"/>
      <feColorMatrix in="SourceAlpha" type="matrix" values="0 0 0 0 0 0 0 0 0 0 0 0 0 0 0 0 0 0 127 0" result="hardAlpha"/>
      <feOffset/><feGaussianBlur stdDeviation="2.5"/>
      <feComposite in2="hardAlpha" operator="arithmetic" k2="-1" k3="1"/>
      <feColorMatrix type="matrix" values="0 0 0 0 0 0 0 0 0 0 0 0 0 0 0 0 0 0 0.3 0"/>
      <feBlend mode="normal" in2="shape" result="effect1_innerShadow"/>
    </filter>
    <filter id="blur" x="3.5" y="0" width="83.5" height="27" filterUnits="userSpaceOnUse" color-interpolation-filters="sRGB">
      <feFlood flood-opacity="0" result="BackgroundImageFix"/>
      <feBlend mode="normal" in="SourceGraphic" in2="BackgroundImageFix" result="shape"/>
      <feGaussianBlur stdDeviation="5" result="effect1_foregroundBlur"/>
    </filter>
  </defs>
</svg>
