<svg preserveAspectRatio="none" width="100%" height="100%" overflow="visible" style="display: block;" viewBox="0 0 22 22" fill="none" xmlns="http://www.w3.org/2000/svg">
<g id="AI" clip-path="url(#clip0_151_3048)">
<path id="Vector" d="M10.0765 7.39267C10.3587 7.55912 10.6803 7.64691 11.0079 7.64691C11.3355 7.64691 11.6572 7.55912 11.9393 7.39267L16.9414 4.4415C17.0285 4.39291 17.129 4.37406 17.2278 4.38781C17.3266 4.40156 17.4182 4.44715 17.4887 4.51768C17.5593 4.5882 17.6049 4.67981 17.6186 4.77859C17.6323 4.87738 17.6135 4.97795 17.5649 5.06505L14.6144 10.0677C14.448 10.3498 14.3601 10.6712 14.36 10.9987C14.3599 11.3262 14.4475 11.6478 14.6137 11.9299L17.5649 16.932C17.614 17.0191 17.6331 17.12 17.6195 17.219C17.6059 17.3181 17.5603 17.4101 17.4896 17.4808C17.4188 17.5515 17.3269 17.5972 17.2278 17.6108C17.1287 17.6244 17.0279 17.6052 16.9407 17.5562L11.9393 14.6043C11.6572 14.4379 11.3355 14.3501 11.0079 14.3501C10.6803 14.3501 10.3587 14.4379 10.0765 14.6043L5.07511 17.5562C4.98786 17.6057 4.88678 17.6252 4.78737 17.6117C4.68796 17.5983 4.59571 17.5526 4.52477 17.4816C4.45383 17.4107 4.40813 17.3185 4.39467 17.219C4.38121 17.1196 4.40074 17.0185 4.45026 16.9313L7.40208 11.9299C7.56853 11.6478 7.65632 11.3261 7.65632 10.9985C7.65632 10.6709 7.56853 10.3492 7.40208 10.0671L4.45091 5.06505C4.40186 4.97788 4.38267 4.87705 4.39627 4.77795C4.40988 4.67886 4.45553 4.58693 4.52626 4.5162C4.59699 4.44547 4.68891 4.39982 4.78801 4.38622C4.88711 4.37261 4.98793 4.3918 5.07511 4.44085L10.0765 7.39267Z" stroke="var(--stroke-0, #B8D8FF)" stroke-width="1.83333" stroke-linecap="round" stroke-linejoin="round"/>
<path id="Vector_2" d="M11.6574 22.0153L9.06464 19.4226" stroke="var(--stroke-0, #B8D8FF)" stroke-width="1.83333" stroke-linecap="round" stroke-linejoin="round"/>
<path id="Vector_3" d="M9.06438 22.0169L11.6571 19.4242" stroke="var(--stroke-0, #B8D8FF)" stroke-width="1.83333" stroke-linecap="round" stroke-linejoin="round"/>
<path id="Vector_4" d="M12.9551 2.56944L11.6588 1.27308" stroke="var(--stroke-0, #B8D8FF)" stroke-width="1.83333" stroke-linecap="round" stroke-linejoin="round"/>
<path id="Vector_5" d="M11.6563 2.57062L12.9526 1.27426" stroke="var(--stroke-0, #B8D8FF)" stroke-width="1.83333" stroke-linecap="round" stroke-linejoin="round"/>
</g>
<defs>
<clipPath id="clip0_151_3048">
<rect width="22" height="22" fill="white"/>
</clipPath>
</defs>
</svg>
