<svg preserveAspectRatio="none" width="100%" height="100%" overflow="visible" style="display:block;" viewBox="0 0 392 27" fill="none" xmlns="http://www.w3.org/2000/svg">
  <g filter="url(#inner)">
    <path d="M13.5 13.5L378.5 13.5" stroke="#EFEEF2" stroke-width="7" stroke-linecap="round"/>
  </g>
  <g opacity="0.9" filter="url(#blur)">
    <path d="M185.5 17C187.433 17 189 15.433 189 13.5C189 11.567 187.433 10 185.5 10L185.5 13.5L185.5 17ZM13.5 13.5L13.5 17L185.5 17L185.5 13.5L185.5 10L13.5 10L13.5 13.5Z" fill="#B8D8FF"/>
  </g>
  <path d="M185.5 17C187.433 17 189 15.433 189 13.5C189 11.567 187.433 10 185.5 10L185.5 13.5L185.5 17ZM13.5 13.5L13.5 17L185.5 17L185.5 13.5L185.5 10L13.5 10L13.5 13.5Z" fill="#B8D8FF"/>
  <defs>
    <filter id="inner" x="10" y="10" width="372" height="7" filterUnits="userSpaceOnUse" color-interpolation-filters="sRGB">
      <feFlood flood-opacity="0" result="BackgroundImageFix"/>
      <feBlend mode="normal" in="SourceGraphic" in2="BackgroundImageFix" result="shape"/>
      <feColorMatrix in="SourceAlpha" type="matrix" values="0 0 0 0 0 0 0 0 0 0 0 0 0 0 0 0 0 0 127 0" result="hardAlpha"/>
      <feOffset/><feGaussianBlur stdDeviation="2.5"/>
      <feComposite in2="hardAlpha" operator="arithmetic" k2="-1" k3="1"/>
      <feColorMatrix type="matrix" values="0 0 0 0 0 0 0 0 0 0 0 0 0 0 0 0 0 0 0.3 0"/>
      <feBlend mode="normal" in2="shape" result="effect1_innerShadow"/>
    </filter>
    <filter id="blur" x="3.5" y="0" width="195.5" height="27" filterUnits="userSpaceOnUse" color-interpolation-filters="sRGB">
      <feFlood flood-opacity="0" result="BackgroundImageFix"/>
      <feBlend mode="normal" in="SourceGraphic" in2="BackgroundImageFix" result="shape"/>
      <feGaussianBlur stdDeviation="5" result="effect1_foregroundBlur"/>
    </filter>
  </defs>
</svg>
