<svg preserveAspectRatio="none" width="100%" height="100%" overflow="visible" style="display: block;" viewBox="0 0 22 22" fill="none" xmlns="http://www.w3.org/2000/svg">
<g id="AI" clip-path="url(#clip0_151_3095)">
<path id="Vector" d="M12.9014 7.79131C12.9833 8.10854 13.1486 8.39805 13.3803 8.62971C13.6119 8.86137 13.9014 9.02672 14.2187 9.10856L19.8424 10.5587C19.9384 10.586 20.0228 10.6437 20.0829 10.7233C20.1431 10.8029 20.1756 10.8999 20.1756 10.9996C20.1756 11.0994 20.1431 11.1964 20.0829 11.276C20.0228 11.3555 19.9384 11.4133 19.8424 11.4406L14.2187 12.8916C13.9016 12.9734 13.6121 13.1386 13.3805 13.3701C13.1488 13.6016 12.9834 13.8909 12.9014 14.208L11.4513 19.8317C11.4243 19.928 11.3666 20.0129 11.2869 20.0734C11.2072 20.1338 11.1099 20.1665 11.0099 20.1665C10.9099 20.1665 10.8126 20.1338 10.7329 20.0734C10.6532 20.0129 10.5955 19.928 10.5685 19.8317L9.11926 14.208C9.03742 13.8907 8.87207 13.6012 8.6404 13.3696C8.40874 13.1379 8.11924 12.9726 7.80201 12.8907L2.17825 11.4415C2.08155 11.4148 1.99626 11.3571 1.93549 11.2773C1.87471 11.1975 1.84179 11.1 1.84179 10.9996C1.84179 10.8993 1.87471 10.8018 1.93549 10.722C1.99626 10.6421 2.08155 10.5845 2.17825 10.5578L7.80201 9.10856C8.11924 9.02672 8.40874 8.86137 8.6404 8.62971C8.87207 8.39805 9.03742 8.10854 9.11926 7.79131L10.5694 2.16756C10.5964 2.07123 10.6541 1.98637 10.7338 1.92592C10.8135 1.86547 10.9108 1.83274 11.0108 1.83274C11.1108 1.83274 11.2081 1.86547 11.2878 1.92592C11.3675 1.98637 11.4252 2.07123 11.4522 2.16756L12.9014 7.79131Z" stroke="var(--stroke-0, #B8D8FF)" stroke-width="1.83333" stroke-linecap="round" stroke-linejoin="round"/>
<path id="Vector_2" d="M3.67737 19.2467L3.67737 15.5801" stroke="var(--stroke-0, #B8D8FF)" stroke-width="1.83333" stroke-linecap="round" stroke-linejoin="round"/>
<path id="Vector_3" d="M1.84286 17.4146L5.50953 17.4146" stroke="var(--stroke-0, #B8D8FF)" stroke-width="1.83333" stroke-linecap="round" stroke-linejoin="round"/>
<path id="Vector_4" d="M18.3474 6.41628L18.3474 4.58295" stroke="var(--stroke-0, #B8D8FF)" stroke-width="1.83333" stroke-linecap="round" stroke-linejoin="round"/>
<path id="Vector_5" d="M17.4271 5.4977L19.2605 5.4977" stroke="var(--stroke-0, #B8D8FF)" stroke-width="1.83333" stroke-linecap="round" stroke-linejoin="round"/>
</g>
<defs>
<clipPath id="clip0_151_3095">
<rect width="22" height="22" fill="white"/>
</clipPath>
</defs>
</svg>
