<svg preserveAspectRatio="none" width="100%" height="100%" overflow="visible" style="display: block;" viewBox="0 0 23.9062 31.8747" fill="none" xmlns="http://www.w3.org/2000/svg">
<g id="Group 43">
<path id="Vector" d="M21.914 0H17.9297C16.8294 0 15.9375 0.891923 15.9375 1.99217V29.8825C15.9375 30.9827 16.8294 31.8747 17.9297 31.8747H21.914C23.0142 31.8747 23.9062 30.9827 23.9062 29.8825V1.99217C23.9062 0.891923 23.0142 0 21.914 0Z" fill="var(--fill-0, black)"/>
<path id="Vector_2" d="M5.9765 0H1.99217C0.891923 0 0 0.891923 0 1.99217V29.8825C0 30.9827 0.891923 31.8747 1.99217 31.8747H5.9765C7.07674 31.8747 7.96866 30.9827 7.96866 29.8825V1.99217C7.96866 0.891923 7.07674 0 5.9765 0Z" fill="var(--fill-0, black)"/>
</g>
</svg>
