<svg preserveAspectRatio="none" width="100%" height="100%" overflow="visible" style="display: block;" viewBox="0 0 24.1659 24.1659" fill="none" xmlns="http://www.w3.org/2000/svg">
<g id="Icon">
<path id="Vector" d="M3.0207 12.0829C3.0207 13.8753 3.55219 15.6274 4.54796 17.1176C5.54373 18.6079 6.95905 19.7694 8.61496 20.4553C10.2709 21.1412 12.093 21.3207 13.8509 20.971C15.6088 20.6214 17.2235 19.7583 18.4909 18.4909C19.7582 17.2235 20.6213 15.6088 20.971 13.8509C21.3207 12.093 21.1412 10.2709 20.4553 8.61499C19.7694 6.95908 18.6079 5.54376 17.1176 4.54799C15.6273 3.55222 13.8753 3.02073 12.0829 3.02073C9.54948 3.03026 7.1178 4.01881 5.29633 5.77967L3.0207 8.0553" stroke="var(--stroke-0, black)" stroke-width="2.25" stroke-linecap="round" stroke-linejoin="round"/>
<path id="Vector_2" d="M3.0207 3.02073V8.0553H8.05527" stroke="var(--stroke-0, black)" stroke-width="2.25" stroke-linecap="round" stroke-linejoin="round"/>
</g>
</svg>
