<svg preserveAspectRatio="none" width="100%" height="100%" overflow="visible" style="display: block;" viewBox="0 0 167.096 86" fill="none" xmlns="http://www.w3.org/2000/svg">
<g id="yAp">
<path id="Vector" d="M115.896 86V17.6H128.196L128.496 29L127.196 28.4C128.529 24.4667 130.696 21.5 133.696 19.5C136.763 17.4333 140.329 16.4 144.396 16.4C149.463 16.4 153.663 17.6667 156.996 20.2C160.396 22.7333 162.929 26.1 164.596 30.3C166.263 34.5 167.096 39.1667 167.096 44.3C167.096 49.4333 166.229 54.1 164.496 58.3C162.829 62.5 160.296 65.8667 156.896 68.4C153.563 70.9333 149.363 72.2 144.296 72.2C141.629 72.2 139.129 71.7333 136.796 70.8C134.529 69.8667 132.563 68.5333 130.896 66.8C129.296 65.0667 128.163 63.0333 127.496 60.7L128.696 59.7V86H115.896ZM141.296 61.8C145.163 61.8 148.196 60.2667 150.396 57.2C152.663 54.0667 153.796 49.7667 153.796 44.3C153.796 38.8333 152.663 34.5667 150.396 31.5C148.196 28.3667 145.163 26.8 141.296 26.8C138.696 26.8 136.463 27.4667 134.596 28.8C132.729 30.0667 131.263 32 130.196 34.6C129.196 37.2 128.696 40.4333 128.696 44.3C128.696 48.1667 129.196 51.4 130.196 54C131.196 56.6 132.629 58.5667 134.496 59.9C136.429 61.1667 138.696 61.8 141.296 61.8Z" fill="var(--fill-0, black)"/>
<path id="Vector_2" d="M43.8512 71L69.4512 0H85.3512L110.951 71H97.3512L91.4512 54.2H63.3512L57.4512 71H43.8512ZM67.1512 43.1H87.6512L77.4512 13.1L67.1512 43.1Z" fill="var(--fill-0, black)"/>
<path id="Vector_3" d="M8.7 86V76.1H15.5C17.2333 76.1 18.5 75.8333 19.3 75.3C20.1667 74.7667 20.8333 73.8667 21.3 72.6L22.8 68.9H19.1L0 17.6H13.3L26.7 56.9L39.5 17.6H52.8L31.9 76.6C30.7 79.9333 29 82.3334 26.8 83.8C24.6667 85.2667 21.6667 86 17.8 86H8.7Z" fill="var(--fill-0, black)"/>
</g>
</svg>
