<svg preserveAspectRatio="none" width="100%" height="100%" overflow="visible" style="display: block;" viewBox="0 0 18.4844 4.10938" fill="none" xmlns="http://www.w3.org/2000/svg">
<g id="&#244;&#128;&#175;&#182;">
<g id="Vector">
<path d="M16.4375 4.10938C15.8542 4.10938 15.3646 3.91146 14.9688 3.51562C14.5729 3.11979 14.375 2.63021 14.375 2.04688C14.375 1.47396 14.5729 0.989583 14.9688 0.59375C15.3646 0.197917 15.8542 0 16.4375 0C17.0104 0 17.4948 0.197917 17.8906 0.59375C18.2865 0.989583 18.4844 1.47396 18.4844 2.04688C18.4844 2.63021 18.2865 3.11979 17.8906 3.51562C17.4948 3.91146 17.0104 4.10938 16.4375 4.10938Z" fill="var(--fill-0, #1A1A1A)" style="mix-blend-mode:plus-darker"/>
</g>
<g id="Vector_2">
<path d="M9.25 4.10938C8.66667 4.10938 8.17708 3.91146 7.78125 3.51562C7.38542 3.11979 7.1875 2.63021 7.1875 2.04688C7.1875 1.47396 7.38542 0.989583 7.78125 0.59375C8.17708 0.197917 8.66667 0 9.25 0C9.82292 0 10.3073 0.197917 10.7031 0.59375C11.099 0.989583 11.2969 1.47396 11.2969 2.04688C11.2969 2.63021 11.099 3.11979 10.7031 3.51562C10.3073 3.91146 9.82292 4.10938 9.25 4.10938Z" fill="var(--fill-0, #1A1A1A)" style="mix-blend-mode:plus-darker"/>
</g>
<g id="Vector_3">
<path d="M2.0625 4.10938C1.47917 4.10938 0.989583 3.91146 0.59375 3.51562C0.197917 3.11979 0 2.63021 0 2.04688C0 1.47396 0.197917 0.989583 0.59375 0.59375C0.989583 0.197917 1.47917 0 2.0625 0C2.63542 0 3.11979 0.197917 3.51562 0.59375C3.91146 0.989583 4.10938 1.47396 4.10938 2.04688C4.10938 2.63021 3.91146 3.11979 3.51562 3.51562C3.11979 3.91146 2.63542 4.10938 2.0625 4.10938Z" fill="var(--fill-0, #1A1A1A)" style="mix-blend-mode:plus-darker"/>
</g>
</g>
</svg>
