<svg preserveAspectRatio="none" width="100%" height="100%" overflow="visible" style="display: block;" viewBox="0 0 22 22" fill="none" xmlns="http://www.w3.org/2000/svg">
<g id="AI" clip-path="url(#clip0_151_3014)">
<path id="Vector" d="M7.39976 11.93C7.56621 11.6478 7.654 11.3262 7.654 10.9986C7.654 10.6709 7.56621 10.3493 7.39976 10.0671L4.44859 5.06511C4.4 4.97801 4.38115 4.87744 4.3949 4.77865C4.40865 4.67987 4.45425 4.58826 4.52477 4.51774C4.59529 4.44721 4.6869 4.40162 4.78568 4.38787C4.88447 4.37412 4.98504 4.39297 5.07214 4.44156L10.0748 7.39208C10.3569 7.55851 10.6783 7.64634 11.0058 7.64645C11.3333 7.64657 11.6549 7.55896 11.937 7.39273L16.939 4.44156C17.0262 4.39251 17.127 4.37332 17.2261 4.38693C17.3252 4.40053 17.4172 4.44618 17.4879 4.51691C17.5586 4.58764 17.6043 4.67957 17.6179 4.77866C17.6315 4.87776 17.6123 4.97859 17.5632 5.06576L14.6114 10.0671C14.445 10.3493 14.3572 10.6709 14.3572 10.9986C14.3572 11.3262 14.445 11.6478 14.6114 11.93L17.5632 16.9314C17.6128 17.0186 17.6323 17.1197 17.6188 17.2191C17.6054 17.3185 17.5597 17.4108 17.4887 17.4817C17.4178 17.5526 17.3255 17.5983 17.2261 17.6118C17.1267 17.6253 17.0256 17.6057 16.9384 17.5562L11.937 14.6044C11.6548 14.4379 11.3332 14.3502 11.0056 14.3502C10.678 14.3502 10.3563 14.4379 10.0742 14.6044L5.07214 17.5556C4.98497 17.6046 4.88414 17.6238 4.78505 17.6102C4.68595 17.5966 4.59402 17.5509 4.52329 17.4802C4.45257 17.4095 4.40692 17.3176 4.39331 17.2185C4.37971 17.1194 4.39889 17.0185 4.44794 16.9314L7.39976 11.93Z" stroke="var(--stroke-0, #B8D8FF)" stroke-width="1.83333" stroke-linecap="round" stroke-linejoin="round"/>
<path id="Vector_2" d="M22.0224 10.3491L19.4297 12.9418" stroke="var(--stroke-0, #B8D8FF)" stroke-width="1.83333" stroke-linecap="round" stroke-linejoin="round"/>
<path id="Vector_3" d="M22.024 12.9421L19.4313 10.3494" stroke="var(--stroke-0, #B8D8FF)" stroke-width="1.83333" stroke-linecap="round" stroke-linejoin="round"/>
<path id="Vector_4" d="M2.57662 9.05125L1.28026 10.3476" stroke="var(--stroke-0, #B8D8FF)" stroke-width="1.83333" stroke-linecap="round" stroke-linejoin="round"/>
<path id="Vector_5" d="M2.5778 10.3501L1.28144 9.05375" stroke="var(--stroke-0, #B8D8FF)" stroke-width="1.83333" stroke-linecap="round" stroke-linejoin="round"/>
</g>
<defs>
<clipPath id="clip0_151_3014">
<rect width="22" height="22" fill="white"/>
</clipPath>
</defs>
</svg>
