<svg preserveAspectRatio="none" width="100%" height="100%" overflow="visible" style="display: block;" viewBox="0 0 22 22" fill="none" xmlns="http://www.w3.org/2000/svg">
<g id="AI" clip-path="url(#clip0_148_2833)">
<path id="Vector" d="M9.11506 14.208C9.03322 13.8908 8.86787 13.6013 8.63621 13.3696C8.40454 13.138 8.11504 12.9726 7.79781 12.8908L2.17406 11.4406C2.07811 11.4134 1.99367 11.3556 1.93354 11.276C1.87341 11.1965 1.84087 11.0994 1.84087 10.9997C1.84087 10.9 1.87341 10.803 1.93354 10.7234C1.99367 10.6438 2.07811 10.586 2.17406 10.5588L7.79781 9.10771C8.11493 9.02595 8.40436 8.86074 8.63601 8.62925C8.86766 8.39776 9.03307 8.10844 9.11506 7.79138L10.5652 2.16763C10.5922 2.0713 10.6499 1.98644 10.7296 1.92599C10.8093 1.86554 10.9066 1.83282 11.0066 1.83282C11.1066 1.83282 11.2039 1.86554 11.2836 1.92599C11.3633 1.98644 11.421 2.0713 11.448 2.16763L12.8972 7.79138C12.9791 8.10861 13.1444 8.39812 13.3761 8.62978C13.6077 8.86144 13.8972 9.02679 14.2145 9.10863L19.8382 10.5579C19.9349 10.5846 20.0202 10.6422 20.081 10.722C20.1418 10.8018 20.1747 10.8994 20.1747 10.9997C20.1747 11.1 20.1418 11.1976 20.081 11.2774C20.0202 11.3572 19.9349 11.4149 19.8382 11.4415L14.2145 12.8908C13.8972 12.9726 13.6077 13.138 13.3761 13.3696C13.1444 13.6013 12.9791 13.8908 12.8972 14.208L11.4471 19.8318C11.4201 19.9281 11.3624 20.013 11.2827 20.0734C11.203 20.1339 11.1057 20.1666 11.0057 20.1666C10.9057 20.1666 10.8084 20.1339 10.7287 20.0734C10.649 20.013 10.5913 19.9281 10.5643 19.8318L9.11506 14.208Z" stroke="var(--stroke-0, #B8D8FF)" stroke-width="1.83333" stroke-linecap="round" stroke-linejoin="round"/>
<path id="Vector_2" d="M18.3363 2.75042V6.41709" stroke="var(--stroke-0, #B8D8FF)" stroke-width="1.83333" stroke-linecap="round" stroke-linejoin="round"/>
<path id="Vector_3" d="M20.1712 4.58282L16.5045 4.58282" stroke="var(--stroke-0, #B8D8FF)" stroke-width="1.83333" stroke-linecap="round" stroke-linejoin="round"/>
<path id="Vector_4" d="M3.66817 15.583L3.66817 17.4163" stroke="var(--stroke-0, #B8D8FF)" stroke-width="1.83333" stroke-linecap="round" stroke-linejoin="round"/>
<path id="Vector_5" d="M4.58786 16.5006H2.75452" stroke="var(--stroke-0, #B8D8FF)" stroke-width="1.83333" stroke-linecap="round" stroke-linejoin="round"/>
</g>
<defs>
<clipPath id="clip0_148_2833">
<rect width="22" height="22" fill="white"/>
</clipPath>
</defs>
</svg>
