<svg width="21" height="21" viewBox="0 0 21 21" fill="none" xmlns="http://www.w3.org/2000/svg">
<path d="M8.19215 13.2917C8.11032 12.9745 7.94496 12.685 7.7133 12.4533C7.48164 12.2217 7.19214 12.0563 6.8749 11.9745L1.25115 10.5243C1.15521 10.4971 1.07076 10.4393 1.01063 10.3597C0.950502 10.2802 0.917969 10.1831 0.917969 10.0834C0.917969 9.98366 0.950502 9.88665 1.01063 9.80707C1.07076 9.7275 1.15521 9.66972 1.25115 9.64248L6.8749 8.1914C7.19202 8.10964 7.48145 7.94442 7.71311 7.71293C7.94476 7.48144 8.11017 7.19213 8.19215 6.87507L9.64232 1.25132C9.66928 1.15499 9.72701 1.07013 9.8067 1.00968C9.88639 0.949226 9.98367 0.916504 10.0837 0.916504C10.1837 0.916504 10.281 0.949226 10.3607 1.00968C10.4404 1.07013 10.4981 1.15499 10.5251 1.25132L11.9743 6.87507C12.0562 7.1923 12.2215 7.4818 12.4532 7.71347C12.6848 7.94513 12.9743 8.11048 13.2916 8.19232L18.9153 9.64157C19.012 9.66824 19.0973 9.72591 19.1581 9.80572C19.2189 9.88553 19.2518 9.98308 19.2518 10.0834C19.2518 10.1837 19.2189 10.2813 19.1581 10.3611C19.0973 10.4409 19.012 10.4986 18.9153 10.5252L13.2916 11.9745C12.9743 12.0563 12.6848 12.2217 12.4532 12.4533C12.2215 12.685 12.0562 12.9745 11.9743 13.2917L10.5242 18.9155C10.4972 19.0118 10.4395 19.0967 10.3598 19.1571C10.2801 19.2176 10.1828 19.2503 10.0828 19.2503C9.98275 19.2503 9.88547 19.2176 9.80578 19.1571C9.72609 19.0967 9.66836 19.0118 9.6414 18.9155L8.19215 13.2917Z" stroke="#B8D8FF" stroke-width="1.83333" stroke-linecap="round" stroke-linejoin="round"/>
<path d="M17.4141 1.83398V5.50065" stroke="#B8D8FF" stroke-width="1.83333" stroke-linecap="round" stroke-linejoin="round"/>
<path d="M19.2487 3.6665L15.582 3.6665" stroke="#B8D8FF" stroke-width="1.83333" stroke-linecap="round" stroke-linejoin="round"/>
<path d="M2.74609 14.6665L2.74609 16.4998" stroke="#B8D8FF" stroke-width="1.83333" stroke-linecap="round" stroke-linejoin="round"/>
<path d="M3.66536 15.584H1.83203" stroke="#B8D8FF" stroke-width="1.83333" stroke-linecap="round" stroke-linejoin="round"/>
</svg>
