<svg width="17" height="19" viewBox="0 0 17 19" fill="none" xmlns="http://www.w3.org/2000/svg">
<path d="M13.8872 16.5269L14.46 4.45752H15.4561C15.7964 4.45752 16.0703 4.16699 16.0703 3.82666C16.0703 3.48633 15.7964 3.2041 15.4561 3.2041H11.6626V1.95898C11.6626 0.763672 10.8574 0 9.5791 0H6.47461C5.19629 0 4.39941 0.763672 4.39941 1.95898V3.2041H0.614258C0.282227 3.2041 0 3.49463 0 3.82666C0 4.16699 0.282227 4.45752 0.614258 4.45752H1.61865L2.19141 16.5352C2.24951 17.7222 3.02979 18.4858 4.2334 18.4858H11.8452C13.0322 18.4858 13.8291 17.7139 13.8872 16.5269ZM5.72754 2.04199C5.72754 1.56885 6.06787 1.23682 6.57422 1.23682H9.48779C9.99414 1.23682 10.3428 1.56885 10.3428 2.04199V3.2041H5.72754V2.04199ZM4.34961 17.2324C3.87646 17.2324 3.51953 16.8755 3.49463 16.3857L2.91357 4.45752H13.1318L12.584 16.3857C12.5591 16.8838 12.2104 17.2324 11.7124 17.2324H4.34961ZM10.5005 15.7798C10.7744 15.7798 10.9736 15.5557 10.9819 15.2402L11.231 6.53271C11.2393 6.22559 11.0317 5.99316 10.7495 5.99316C10.4922 5.99316 10.2764 6.23389 10.2681 6.53271L10.019 15.2319C10.0107 15.5391 10.2183 15.7798 10.5005 15.7798ZM5.57812 15.7798C5.86035 15.7798 6.06787 15.5391 6.05957 15.2319L5.80225 6.53271C5.79395 6.23389 5.57812 5.99316 5.3208 5.99316C5.03857 5.99316 4.83105 6.22559 4.83936 6.53271L5.08838 15.2402C5.09668 15.5557 5.2959 15.7798 5.57812 15.7798ZM8.03516 15.7798C8.30908 15.7798 8.5415 15.5391 8.5415 15.2402V6.53271C8.5415 6.23389 8.30908 5.99316 8.03516 5.99316C7.76953 5.99316 7.53711 6.23389 7.53711 6.53271V15.2402C7.53711 15.5391 7.76953 15.7798 8.03516 15.7798Z" fill="black"/>
</svg>
