<svg width="18" height="20" viewBox="0 0 18 20" fill="none" xmlns="http://www.w3.org/2000/svg">
<path d="M8.71383 20C9.23689 20 9.70303 19.8828 10.1123 19.6485C10.5215 19.4141 10.8523 19.1069 11.1046 18.7268C11.3569 18.3468 11.5046 17.9351 11.5477 17.4917H5.87999C5.92306 17.9351 6.06922 18.3468 6.31845 18.7268C6.56768 19.1069 6.89845 19.4141 7.31076 19.6485C7.72306 19.8828 8.19075 20 8.71383 20ZM1.39384 16.19H12.5353L2.90769 6.27079C2.80307 6.72052 2.72461 7.19716 2.6723 7.70073C2.62 8.20429 2.59077 8.73478 2.58462 9.29218C2.56 9.65957 2.52153 10.0396 2.46922 10.4324C2.41692 10.825 2.33384 11.1956 2.21999 11.5439C2.10615 11.8923 1.94769 12.1742 1.74461 12.3896C1.47385 12.6746 1.20462 12.9596 0.936922 13.2447C0.66923 13.5297 0.446153 13.8211 0.267692 14.1188C0.0892306 14.4165 0 14.7237 0 15.0404C0 15.3888 0.123077 15.6675 0.36923 15.8766C0.615384 16.0855 0.956922 16.19 1.39384 16.19ZM8.71383 0C8.03076 0 7.45845 0.215361 6.99691 0.646082C6.53537 1.0768 6.21845 1.60253 6.04614 2.22329C5.80614 2.30563 5.57999 2.40697 5.36768 2.52732C5.15538 2.64767 4.95692 2.78385 4.7723 2.93587L17.1877 15.734C17.3415 15.5503 17.4184 15.3191 17.4184 15.0404C17.4184 14.7237 17.3292 14.4165 17.1507 14.1188C16.9723 13.8211 16.7492 13.5297 16.4815 13.2447C16.2138 12.9596 15.9477 12.6746 15.6831 12.3896C15.48 12.1742 15.3215 11.8923 15.2077 11.5439C15.0938 11.1956 15.0092 10.825 14.9538 10.4324C14.8984 10.0396 14.8615 9.65957 14.843 9.29218C14.8185 8.07602 14.6892 6.99289 14.4554 6.04277C14.2215 5.09264 13.8554 4.29454 13.3569 3.64846C12.8584 3.00238 12.1999 2.52732 11.3815 2.22329C11.203 1.60253 10.8831 1.0768 10.4215 0.646082C9.96001 0.215361 9.39077 0 8.71383 0ZM0.203077 1.92874L16.7908 18.9834C16.9261 19.1228 17.0938 19.1925 17.2938 19.1925C17.4938 19.1925 17.6615 19.1228 17.7969 18.9834C17.9323 18.8377 18 18.6635 18 18.4608C18 18.2581 17.9323 18.0871 17.7969 17.9478L1.21846 0.893114C1.08308 0.753762 0.915384 0.684087 0.715384 0.684087C0.515384 0.684087 0.344615 0.753762 0.203077 0.893114C0.0676923 1.03246 0 1.20507 0 1.41093C0 1.61679 0.0676923 1.78939 0.203077 1.92874Z" fill="black" fill-opacity="0.8"/>
</svg>
