<svg width="18" height="19" viewBox="0 0 18 19" fill="none" xmlns="http://www.w3.org/2000/svg">
  <!-- Solid filled mute / hide-alerts glyph for masks (same silhouette as hide-alerts.svg) -->
  <path fill="black" d="M8.29568 19C8.88613 19 9.41522 18.8575 9.88294 18.5724C10.3506 18.2873 10.7277 17.9087 11.0141 17.4366C11.3006 16.9645 11.4701 16.4434 11.5227 15.8732H12.0928L10.5756 14.2822H1.72754V14.1718C1.78015 14.086 1.86638 13.971 1.98622 13.8269C2.10607 13.6828 2.24492 13.525 2.40276 13.3533C2.56061 13.1816 2.71553 13.0069 2.86753 12.8291C3.02538 12.6452 3.16276 12.4321 3.27968 12.1899C3.39661 11.9478 3.496 11.6734 3.57785 11.3669C3.65969 11.0603 3.72399 10.72 3.77076 10.346C3.81753 9.97205 3.84968 9.56128 3.86722 9.11373C3.87307 8.79492 3.88769 8.49144 3.91107 8.20329C3.93446 7.91513 3.96368 7.6423 3.99876 7.3848L2.77107 6.09728C2.67754 6.51419 2.60592 6.96482 2.55623 7.44917C2.50653 7.93352 2.47877 8.44852 2.47292 8.99418C2.44953 9.34979 2.41153 9.71766 2.35892 10.0978C2.3063 10.4779 2.22738 10.8365 2.12215 11.1737C2.01692 11.5109 1.86784 11.7838 1.67492 11.9923C1.41769 12.2681 1.16192 12.544 0.907612 12.8199C0.653306 13.0958 0.441384 13.3778 0.271845 13.666C0.102307 13.9542 0.0175384 14.2515 0.0175384 14.5581C0.0175384 14.8953 0.134461 15.1651 0.368307 15.3674C0.602153 15.5697 0.929538 15.6708 1.35046 15.6708H5.0423C5.06568 16.2656 5.21915 16.8143 5.50268 17.317C5.78622 17.8198 6.16768 18.226 6.64706 18.5355C7.12645 18.8452 7.67598 19 8.29568 19ZM8.29568 17.7032C7.76368 17.7032 7.32522 17.5209 6.9803 17.1561C6.63538 16.7913 6.44538 16.2962 6.4103 15.6708H10.1723C10.1431 16.2962 9.95451 16.7913 9.60664 17.1561C9.25883 17.5209 8.82184 17.7032 8.29568 17.7032ZM4.53369 2.85091L5.54215 3.90851C5.69999 3.7859 5.86515 3.68167 6.0376 3.59583C6.21007 3.51 6.39276 3.43949 6.58568 3.38431C6.69091 3.35979 6.77422 3.31534 6.8356 3.25097C6.89699 3.18659 6.92768 3.09616 6.92768 2.97967C6.94522 2.50145 7.0753 2.1106 7.31791 1.80712C7.56053 1.50363 7.88645 1.35189 8.29568 1.35189C8.69906 1.35189 9.02207 1.50363 9.26469 1.80712C9.50732 2.1106 9.63741 2.50145 9.65495 2.97967C9.66076 3.09616 9.6929 3.18659 9.75139 3.25097C9.80982 3.31534 9.89459 3.35979 10.0057 3.38431C10.5143 3.53146 10.9718 3.80429 11.3781 4.2028C11.7844 4.60132 12.1103 5.20982 12.3559 6.02831C12.6014 6.8468 12.7329 7.95498 12.7504 9.35285C12.768 9.72681 12.7913 10.0579 12.8206 10.346C12.8498 10.6342 12.8922 10.8932 12.9477 11.1232C13.0033 11.3531 13.0837 11.5723 13.1889 11.7808L16.302 15.1467C16.454 14.9627 16.53 14.7389 16.53 14.4753C16.53 14.1075 16.3823 13.7503 16.0871 13.4039C15.7919 13.0575 15.4864 12.7157 15.1707 12.3785C14.9895 12.17 14.836 11.9539 14.7103 11.7302C14.5847 11.5064 14.4824 11.2703 14.4034 11.022C14.3245 10.7737 14.2646 10.5086 14.2236 10.2265C14.1827 9.94452 14.1565 9.64103 14.1448 9.31606C14.1214 7.36027 13.8554 5.78767 13.3468 4.59825C12.8382 3.40884 11.9992 2.59342 10.8299 2.15199C10.6779 1.55114 10.3784 1.04227 9.93116 0.625362C9.48392 0.208454 8.93876 0 8.29568 0C7.64676 0 7.09868 0.208454 6.65145 0.625362C6.20422 1.04227 5.90753 1.55114 5.76138 2.15199C5.52753 2.23169 5.3083 2.33132 5.10368 2.45087C4.89907 2.57042 4.70907 2.70377 4.53369 2.85091ZM0.192923 1.86689L15.9512 18.3746C16.0798 18.5095 16.2391 18.577 16.4291 18.577C16.6191 18.577 16.7784 18.5095 16.907 18.3746C17.0357 18.2336 17.1 18.065 17.1 17.8688C17.1 17.6726 17.0357 17.5071 16.907 17.3722L1.15753 0.864472C1.02892 0.72959 0.869615 0.662148 0.679614 0.662148C0.489615 0.662148 0.327384 0.72959 0.192923 0.864472C0.0643077 0.999352 0 1.16642 0 1.36569C0 1.56494 0.0643077 1.73201 0.192923 1.86689Z"/>
</svg>
