<svg width="21" height="19" viewBox="0 0 21 19" fill="none" xmlns="http://www.w3.org/2000/svg">
<path d="M4.01852 19C4.43211 19 4.96606 18.8791 5.62038 18.6373C6.2747 18.3954 6.96297 18.0809 7.6852 17.694C8.40742 17.307 9.08027 16.8929 9.70374 16.4515C10.9939 16.4878 12.2099 16.379 13.3518 16.1251C14.4939 15.8711 15.5325 15.4977 16.4677 15.005C17.4028 14.5122 18.2084 13.9212 18.8843 13.2319C19.5602 12.5427 20.0818 11.7764 20.4491 10.933C20.8164 10.0895 21 9.19318 21 8.24391C21 7.10119 20.7299 6.03102 20.1898 5.03341C19.6497 4.03579 18.8998 3.16061 17.9398 2.40787C16.9799 1.65513 15.8642 1.06563 14.5926 0.639379C13.321 0.213126 11.9568 0 10.5 0C9.04322 0 7.67902 0.213126 6.40742 0.639379C5.13581 1.06563 4.02007 1.65513 3.06019 2.40787C2.10031 3.16061 1.35031 4.03579 0.810186 5.03341C0.270062 6.03102 0 7.10119 0 8.24391C0 9.23546 0.202161 10.1757 0.606482 11.0645C1.01081 11.9532 1.57871 12.7513 2.31019 13.4587C3.04167 14.1661 3.89507 14.7405 4.87038 15.1819C4.7284 15.4479 4.55865 15.732 4.36112 16.0343C4.16359 16.3367 3.96606 16.6253 3.76853 16.9004C3.57099 17.1756 3.40124 17.4008 3.25926 17.5761C3.09877 17.7878 3.02161 18.0039 3.02778 18.2245C3.03395 18.4453 3.12037 18.6297 3.28705 18.7778C3.45371 18.9259 3.69754 19 4.01852 19ZM4.99075 17.4945C4.95371 17.5066 4.92902 17.502 4.91668 17.4809C4.90433 17.4597 4.91051 17.434 4.9352 17.4038C5.19445 17.0894 5.48149 16.7251 5.79631 16.311C6.11112 15.8968 6.34878 15.5446 6.50927 15.2544C6.6389 15.0186 6.67902 14.8009 6.62964 14.6015C6.58026 14.4019 6.40742 14.2326 6.11112 14.0936C5.14198 13.6522 4.31637 13.1307 3.63427 12.5291C2.95217 11.9275 2.43211 11.2639 2.07408 10.5385C1.71605 9.81291 1.53704 9.04806 1.53704 8.24391C1.53704 7.3128 1.76698 6.44065 2.22685 5.62744C2.68673 4.81423 3.32562 4.09777 4.14353 3.47804C4.96143 2.85831 5.91359 2.37311 7.00001 2.02243C8.08643 1.67176 9.25309 1.49642 10.5 1.49642C11.7469 1.49642 12.9136 1.67176 14 2.02243C15.0865 2.37311 16.0386 2.85831 16.8565 3.47804C17.6744 4.09777 18.3149 4.81423 18.7778 5.62744C19.2408 6.44065 19.4722 7.3128 19.4722 8.24391C19.4722 9.16897 19.2408 10.0396 18.7778 10.8559C18.3149 11.6721 17.6744 12.3885 16.8565 13.0052C16.0386 13.6219 15.0865 14.1056 14 14.4563C12.9136 14.807 11.7469 14.9823 10.5 14.9823C10.4074 14.9823 10.2901 14.9808 10.1481 14.9778C10.0062 14.9747 9.84259 14.9702 9.65738 14.9642C9.46605 14.9642 9.28859 14.9959 9.12501 15.0594C8.96143 15.1229 8.79322 15.2212 8.62039 15.3542C8.24384 15.6202 7.82717 15.8968 7.37039 16.184C6.91359 16.4712 6.47223 16.7327 6.0463 16.9685C5.62038 17.2043 5.26852 17.3796 4.99075 17.4945Z" fill="black"/>
<path d="M14.4141 4.87493C14.7592 5.10357 14.8532 5.56887 14.6247 5.91418L10.2391 12.544L7.46872 9.77358C7.17589 9.48074 7.176 9.00583 7.46872 8.71292C7.76162 8.42002 8.23649 8.42002 8.52938 8.71292L10.0009 10.1844L13.3742 5.08623C13.6028 4.74101 14.0687 4.64646 14.4141 4.87493Z" fill="black"/>
</svg>
