<svg width="21" height="19" viewBox="0 0 21 19" fill="none" xmlns="http://www.w3.org/2000/svg">
<path d="M10.4502 0C11.6702 1.61368e-05 12.8246 0.152272 13.9141 0.454102C13.5874 0.849575 13.3347 1.30889 13.1787 1.81055C12.3166 1.60194 11.4073 1.49611 10.4502 1.49609C9.20927 1.49609 8.04802 1.67181 6.9668 2.02246C5.88555 2.37314 4.93803 2.85878 4.12402 3.47852C3.31005 4.09823 2.67349 4.81475 2.21582 5.62793C1.75834 6.44098 1.5293 7.31325 1.5293 8.24414C1.52933 9.04813 1.70823 9.81266 2.06445 10.5381C2.42078 11.2636 2.93834 11.9277 3.61719 12.5293C4.29599 13.1308 5.11762 13.6524 6.08203 14.0938C6.37687 14.2328 6.54851 14.402 6.59766 14.6016C6.6468 14.801 6.60753 15.0191 6.47852 15.2549C6.31882 15.545 6.0817 15.8966 5.76855 16.3105C5.45539 16.7245 5.17003 17.089 4.91211 17.4033C4.8876 17.4335 4.8814 17.4594 4.89355 17.4805C4.90583 17.5016 4.92997 17.5062 4.9668 17.4941C5.24324 17.3792 5.5937 17.2045 6.01758 16.9688C6.44147 16.7329 6.88035 16.4707 7.33496 16.1836C7.78945 15.8965 8.20443 15.6205 8.5791 15.3545C8.75111 15.2215 8.91923 15.1231 9.08203 15.0596C9.24472 14.9962 9.42107 14.9639 9.61133 14.9639C9.79556 14.9699 9.95837 14.9745 10.0996 14.9775C10.2409 14.9806 10.358 14.9824 10.4502 14.9824C11.6911 14.9824 12.8524 14.8067 13.9336 14.4561C15.0147 14.1054 15.9625 13.6215 16.7764 13.0049C17.5903 12.3882 18.2278 11.6716 18.6885 10.8555C19.1491 10.0394 19.3798 9.16899 19.3799 8.24414C19.3799 7.61183 19.2701 7.00763 19.0576 6.42969C19.5241 6.14919 19.9278 5.77602 20.2451 5.33594C20.6805 6.24679 20.9004 7.21577 20.9004 8.24414C20.9004 9.19324 20.717 10.0893 20.3516 10.9326C19.986 11.776 19.4666 12.5422 18.7939 13.2314C18.1213 13.9206 17.3202 14.5122 16.3896 15.0049C15.4589 15.4976 14.4247 15.871 13.2881 16.125C12.1516 16.3789 10.9411 16.4875 9.65723 16.4512C9.03674 16.8925 8.3672 17.3074 7.64844 17.6943C6.92975 18.0812 6.24488 18.3958 5.59375 18.6377C4.94256 18.8795 4.41063 19 3.99902 19C3.67975 18.9999 3.43729 18.9254 3.27148 18.7773C3.10573 18.6293 3.01983 18.4452 3.01367 18.2246C3.00753 18.004 3.08441 17.7878 3.24414 17.5762C3.38541 17.4009 3.55445 17.1754 3.75098 16.9004C3.94752 16.6254 4.14428 16.3364 4.34082 16.0342C4.53732 15.732 4.70641 15.4475 4.84766 15.1816C3.87699 14.7403 3.02683 14.1664 2.29883 13.459C1.57086 12.7516 1.00591 11.9532 0.603516 11.0645C0.201163 10.1757 3.18095e-05 9.2356 0 8.24414C0 7.10142 0.269088 6.03082 0.806641 5.0332C1.34418 4.03571 2.09068 3.16087 3.0459 2.4082C4.00119 1.65547 5.11142 1.0659 6.37695 0.639648C7.64251 0.213395 9.00035 0 10.4502 0Z" fill="black"/>
<circle cx="17" cy="3" r="3" fill="black"/>
</svg>
