<svg width="13" height="19" viewBox="0 0 13 19" fill="none" xmlns="http://www.w3.org/2000/svg">
  <!-- Solid pin: outer silhouette only (no inner cutouts from outline pin.svg) -->
  <path fill="black" d="M1.1982 12.9112C0.464607 12.9112 0 12.4547 0 11.7619C0 10.042 1.37752 8.31403 3.50493 7.47447L3.77392 3.65165C2.74689 2.97512 1.76062 2.20892 1.34492 1.65465C1.13299 1.37752 1.03518 1.10039 1.03518 0.864007C1.03518 0.366795 1.41012 0 1.98885 0H10.6778C11.2484 0 11.6315 0.366795 11.6315 0.864007C11.6315 1.10039 11.5337 1.37752 11.3136 1.65465C10.8979 2.20892 9.91978 2.97512 8.8846 3.65165L9.15358 7.47447C11.281 8.31403 12.6585 10.042 12.6585 11.7619C12.6585 12.4547 12.1939 12.9112 11.4603 12.9112H7.05062V16.7177C7.05062 17.9648 6.52896 19 6.33333 19C6.12956 19 5.60789 17.9648 5.60789 16.7177V12.9112H1.1982Z"/>
</svg>
