<svg width="13" height="19" viewBox="0 0 13 19" fill="none" xmlns="http://www.w3.org/2000/svg">
<path d="M1.1982 12.9112C0.464607 12.9112 0 12.4547 0 11.7619C0 10.042 1.37752 8.31403 3.50493 7.47447L3.77392 3.65165C2.74689 2.97512 1.76062 2.20892 1.34492 1.65465C1.13299 1.37752 1.03518 1.10039 1.03518 0.864007C1.03518 0.366795 1.41012 0 1.98885 0H10.6778C11.2484 0 11.6315 0.366795 11.6315 0.864007C11.6315 1.10039 11.5337 1.37752 11.3136 1.65465C10.8979 2.20892 9.91978 2.97512 8.8846 3.65165L9.15358 7.47447C11.281 8.31403 12.6585 10.042 12.6585 11.7619C12.6585 12.4547 12.1939 12.9112 11.4603 12.9112H7.05062V16.7177C7.05062 17.9648 6.52896 19 6.33333 19C6.12956 19 5.60789 17.9648 5.60789 16.7177V12.9112H1.1982ZM6.33333 6.94466C6.855 6.94466 7.35221 6.99356 7.83312 7.09138L7.58859 3.04848C7.57229 2.93436 7.59674 2.89361 7.6701 2.85285C8.89275 2.22523 9.83827 1.48348 9.90347 1.32046C9.96868 1.2145 9.90347 1.14929 9.81381 1.14929H2.8447C2.75504 1.14929 2.68983 1.2145 2.75504 1.32046C2.82025 1.48348 3.76577 2.22523 4.98842 2.85285C5.06993 2.89361 5.08623 2.93436 5.07808 3.04848L4.83355 7.09138C5.30631 6.99356 5.81167 6.94466 6.33333 6.94466ZM1.52424 11.6804H11.1343C11.3218 11.6804 11.4033 11.5744 11.3707 11.3544C11.1913 9.88717 9.3166 8.13471 6.33333 8.13471C3.34191 8.13471 1.46718 9.88717 1.28786 11.3544C1.25526 11.5744 1.33677 11.6804 1.52424 11.6804Z" fill="black"/>
</svg>
