<svg width="32" height="48" viewBox="0 0 32 48" fill="none" xmlns="http://www.w3.org/2000/svg">
<path d="M0 23.585V19.1159C0 18.7086 0.139662 18.3652 0.418981 18.0859C0.709938 17.8066 1.05909 17.6669 1.46643 17.6669C1.86213 17.6669 2.19964 17.8066 2.47896 18.0859C2.76992 18.3652 2.91539 18.7086 2.91539 19.1159V23.4803C2.91539 26.0174 3.44494 28.2462 4.50402 30.1665C5.56311 32.0752 7.04699 33.5649 8.95567 34.6356C10.876 35.7063 13.1338 36.2417 15.7292 36.2417C18.3245 36.2417 20.5823 35.7063 22.5026 34.6356C24.423 33.5649 25.9069 32.0752 26.9543 30.1665C28.0134 28.2462 28.5429 26.0174 28.5429 23.4803V19.1159C28.5429 18.7086 28.6826 18.3652 28.9619 18.0859C29.2529 17.8066 29.602 17.6669 30.0094 17.6669C30.4167 17.6669 30.76 17.8066 31.0393 18.0859C31.3187 18.3652 31.4583 18.7086 31.4583 19.1159V23.585C31.4583 25.7381 31.115 27.7166 30.4283 29.5205C29.7533 31.3245 28.7873 32.9015 27.5304 34.2515C26.2735 35.6016 24.7663 36.6781 23.0089 37.4811C21.2632 38.2842 19.3254 38.7672 17.1956 38.9301V44.7434H25.8021C26.1978 44.7434 26.5353 44.8831 26.8146 45.1624C27.1056 45.4417 27.2511 45.7851 27.2511 46.1924C27.2511 46.4601 27.1871 46.7045 27.059 46.9256C26.931 47.1467 26.7564 47.3213 26.5353 47.4493C26.3142 47.589 26.0698 47.6588 25.8021 47.6588H5.67367C5.39435 47.6588 5.14413 47.589 4.923 47.4493C4.71351 47.3213 4.53894 47.1467 4.39928 46.9256C4.27126 46.7045 4.20725 46.4601 4.20725 46.1924C4.20725 45.7851 4.3469 45.4417 4.62622 45.1624C4.91718 44.8831 5.26633 44.7434 5.67367 44.7434H14.2802V38.9301C12.1387 38.7672 10.1952 38.2842 8.44941 37.4811C6.70366 36.6781 5.1965 35.6016 3.92793 34.2515C2.67099 32.9015 1.69919 31.3245 1.01253 29.5205C0.337512 27.7166 0 25.7381 0 23.585ZM15.7292 31.0917C14.2511 31.0917 12.9592 30.7484 11.8536 30.0617C10.748 29.3751 9.88673 28.4324 9.2699 27.2336C8.66471 26.0232 8.36212 24.6383 8.36212 23.0787V8.01297C8.36212 6.45344 8.66471 5.0743 9.2699 3.87555C9.88673 2.66517 10.748 1.71665 11.8536 1.02999C12.9592 0.34333 14.2511 0 15.7292 0C17.2072 0 18.4991 0.34333 19.6047 1.02999C20.7104 1.71665 21.5658 2.66517 22.171 3.87555C22.7878 5.0743 23.0962 6.45344 23.0962 8.01297V23.0787C23.0962 24.6383 22.7878 26.0232 22.171 27.2336C21.5658 28.4324 20.7104 29.3751 19.6047 30.0617C18.4991 30.7484 17.2072 31.0917 15.7292 31.0917Z" fill="black"/>
</svg>
