<svg width="18" height="20" viewBox="0 0 18 20" fill="none" xmlns="http://www.w3.org/2000/svg">
<path d="M0 15.3243C0 15.6792 0.127186 15.9632 0.381559 16.1762C0.635931 16.3891 0.988873 16.4956 1.44038 16.4956H5.46583C5.49127 17.1216 5.6582 17.6993 5.96663 18.2285C6.27505 18.7577 6.68999 19.1852 7.21146 19.5111C7.73292 19.837 8.32751 20 8.99524 20C9.66931 20 10.2671 19.8387 10.7886 19.516C11.31 19.1933 11.725 18.7657 12.0334 18.2333C12.3418 17.7009 12.5088 17.1216 12.5342 16.4956H16.5596C17.0112 16.4956 17.3641 16.3891 17.6185 16.1762C17.8728 15.9632 18 15.6792 18 15.3243C18 15.0016 17.9078 14.6886 17.7234 14.3853C17.539 14.0819 17.3084 13.7851 17.0318 13.4947C16.7552 13.2042 16.4801 12.9138 16.2067 12.6234C15.9968 12.404 15.8331 12.1168 15.7155 11.7618C15.5978 11.4069 15.5104 11.0294 15.4531 10.6293C15.3959 10.2291 15.3546 9.84188 15.3292 9.46756C15.3101 8.19618 15.1781 7.07808 14.9333 6.11325C14.6884 5.14843 14.3084 4.34333 13.7934 3.69796C13.2783 3.0526 12.5978 2.57503 11.752 2.26525C11.593 1.63278 11.2703 1.09712 10.7838 0.658276C10.2973 0.219425 9.70115 0 8.99524 0C8.29572 0 7.70272 0.219425 7.21623 0.658276C6.72974 1.09712 6.407 1.63278 6.24802 2.26525C5.40224 2.57503 4.7202 3.0526 4.20192 3.69796C3.68363 4.34333 3.30366 5.14843 3.06201 6.11325C2.82036 7.07808 2.68999 8.19618 2.67092 9.46756C2.64547 9.84188 2.60414 10.2291 2.5469 10.6293C2.48967 11.0294 2.40223 11.4069 2.28459 11.7618C2.16693 12.1168 2.00318 12.404 1.79333 12.6234C1.51988 12.9138 1.24484 13.2042 0.968205 13.4947C0.691575 13.7851 0.46105 14.0819 0.27663 14.3853C0.09221 14.6886 0 15.0016 0 15.3243ZM1.85056 15.0339V14.9177C1.90779 14.8273 2.00318 14.7063 2.13673 14.5547C2.27028 14.403 2.42131 14.2368 2.58983 14.0561C2.75836 13.8754 2.92529 13.6915 3.09062 13.5043C3.26232 13.3107 3.41177 13.0865 3.53896 12.8315C3.66614 12.5766 3.77425 12.2878 3.86328 11.9651C3.95232 11.6424 4.02227 11.2842 4.07314 10.8906C4.12402 10.4969 4.16217 10.0645 4.18761 9.5934C4.21304 8.1865 4.35613 7.07002 4.61686 6.24395C4.87759 5.41787 5.22576 4.80316 5.66138 4.39981C6.09699 3.99644 6.58825 3.71732 7.13515 3.56244C7.25597 3.53662 7.34818 3.48983 7.41178 3.42207C7.47537 3.35431 7.51035 3.25911 7.51671 3.13649C7.53579 2.6331 7.67728 2.22168 7.94119 1.90223C8.2051 1.58277 8.55645 1.42304 8.99524 1.42304C9.4404 1.42304 9.79495 1.58277 10.0589 1.90223C10.3228 2.22168 10.4642 2.6331 10.4833 3.13649C10.4833 3.25911 10.5167 3.35431 10.5835 3.42207C10.6503 3.48983 10.7409 3.53662 10.8554 3.56244C11.4022 3.71732 11.8935 3.99644 12.3291 4.39981C12.7647 4.80316 13.1145 5.41787 13.3784 6.24395C13.6423 7.07002 13.787 8.1865 13.8124 9.5934C13.8315 10.0645 13.868 10.4969 13.9221 10.8906C13.9761 11.2842 14.0461 11.6424 14.132 11.9651C14.2178 12.2878 14.3243 12.5766 14.4515 12.8315C14.5787 13.0865 14.7281 13.3107 14.8999 13.5043C15.0716 13.6915 15.2417 13.8754 15.4102 14.0561C15.5788 14.2368 15.7282 14.403 15.8586 14.5547C15.9889 14.7063 16.0827 14.8273 16.1399 14.9177V15.0339H1.85056ZM6.95391 16.4956H11.0461C11.008 17.1539 10.8013 17.675 10.4261 18.0591C10.0509 18.443 9.57397 18.635 8.99524 18.635C8.42291 18.635 7.94755 18.443 7.56917 18.0591C7.19079 17.675 6.98571 17.1539 6.95391 16.4956Z" fill="black"/>
</svg>
