<svg preserveAspectRatio="none" width="100%" height="100%" overflow="visible" style="display: block;" viewBox="0 0 24 24" fill="none" xmlns="http://www.w3.org/2000/svg">
<g id="SkipBackward">
<path id="Vector" d="M4.5 3.75V20.25C4.5 20.4489 4.57902 20.6397 4.71967 20.7803C4.86032 20.921 5.05109 21 5.25 21C5.44891 21 5.63968 20.921 5.78033 20.7803C5.92098 20.6397 6 20.4489 6 20.25V13.7597L17.2097 20.7703C17.4354 20.912 17.695 20.9908 17.9614 20.9985C18.2278 21.0063 18.4915 20.9426 18.7251 20.8142C18.9586 20.6858 19.1536 20.4973 19.2899 20.2682C19.4261 20.0391 19.4987 19.7778 19.5 19.5112V4.48875C19.4987 4.22221 19.4261 3.96086 19.2899 3.73178C19.1536 3.50269 18.9586 3.31418 18.7251 3.18578C18.4915 3.05737 18.2278 2.99374 17.9614 3.00146C17.695 3.00918 17.4354 3.08797 17.2097 3.22969L6 10.2403V3.75C6 3.55109 5.92098 3.36032 5.78033 3.21967C5.63968 3.07902 5.44891 3 5.25 3C5.05109 3 4.86032 3.07902 4.71967 3.21967C4.57902 3.36032 4.5 3.55109 4.5 3.75Z" fill="var(--fill-0, black)"/>
</g>
</svg>
