<svg preserveAspectRatio="none" width="100%" height="100%" overflow="visible" style="display: block;" viewBox="0 0 24 24" fill="none" xmlns="http://www.w3.org/2000/svg">
<g id="SkipForward">
<path id="Vector" d="M19.5 3.75V20.25C19.5 20.4489 19.421 20.6397 19.2803 20.7803C19.1397 20.921 18.9489 21 18.75 21C18.5511 21 18.3603 20.921 18.2197 20.7803C18.079 20.6397 18 20.4489 18 20.25V13.7597L6.79031 20.7703C6.56456 20.912 6.30504 20.9908 6.0386 20.9985C5.77217 21.0063 5.50852 20.9426 5.27494 20.8142C5.04137 20.6858 4.84636 20.4973 4.71011 20.2682C4.57386 20.0391 4.50132 19.7778 4.5 19.5112V4.48875C4.50132 4.22221 4.57386 3.96086 4.71011 3.73178C4.84636 3.50269 5.04137 3.31418 5.27494 3.18578C5.50852 3.05737 5.77217 2.99374 6.0386 3.00146C6.30504 3.00918 6.56456 3.08797 6.79031 3.22969L18 10.2403V3.75C18 3.55109 18.079 3.36032 18.2197 3.21967C18.3603 3.07902 18.5511 3 18.75 3C18.9489 3 19.1397 3.07902 19.2803 3.21967C19.421 3.36032 19.5 3.55109 19.5 3.75Z" fill="var(--fill-0, black)"/>
</g>
</svg>
