<svg width="18" height="22" viewBox="0 0 18 22" fill="none" xmlns="http://www.w3.org/2000/svg">
<path d="M2.23908 13.6191C2.23908 14.0218 2.36144 14.3442 2.60615 14.5864C2.85086 14.8287 3.17816 14.9498 3.58805 14.9498H8.55258V19.3574C8.55258 19.716 8.58317 20.0558 8.64435 20.3767C8.70553 20.6976 8.782 20.9792 8.87376 21.2214C8.96552 21.4637 9.05576 21.654 9.14447 21.7924C9.23318 21.9308 9.30812 22 9.36929 22C9.42436 22 9.49624 21.9308 9.58495 21.7924C9.67366 21.654 9.7639 21.4637 9.85567 21.2214C9.94745 20.9792 10.0239 20.6976 10.085 20.3767C10.1463 20.0558 10.1769 19.716 10.1769 19.3574V15.0631H10.6999L9.20411 13.5247H3.95511C3.74099 13.5247 3.65228 13.3988 3.68899 13.1472C3.7257 12.7948 3.84194 12.4424 4.0377 12.0901C4.23347 11.7378 4.49959 11.4027 4.83606 11.085C5.17253 10.7672 5.56713 10.4888 6.01984 10.2497L5.0563 9.25866C4.48123 9.61103 3.98264 10.02 3.56051 10.4857C3.13839 10.9512 2.81262 11.4514 2.58321 11.9863C2.35379 12.5211 2.23908 13.0654 2.23908 13.6191ZM3.40452 1.00043C3.40452 1.30245 3.52075 1.60761 3.75322 1.91592C3.90617 2.12985 4.12487 2.3658 4.40935 2.62377C4.69382 2.88174 5.015 3.14758 5.37289 3.42129C5.73078 3.69499 6.10243 3.96397 6.48785 4.22824L6.41443 5.26642L7.77256 6.66325L7.9561 3.52982C7.96222 3.41656 7.92857 3.34106 7.85516 3.30331C7.51257 3.12084 7.19292 2.93522 6.89621 2.74647C6.59949 2.55771 6.33796 2.37996 6.11161 2.21322C5.88525 2.04648 5.70478 1.90176 5.57018 1.77907C5.4356 1.65637 5.35913 1.573 5.34077 1.52896C5.30407 1.46604 5.29948 1.41727 5.32701 1.38267C5.35454 1.34806 5.39278 1.33076 5.44172 1.33076H13.2877C13.3367 1.33076 13.3749 1.34806 13.4024 1.38267C13.4299 1.41727 13.4253 1.46604 13.3886 1.52896C13.3703 1.573 13.2954 1.65637 13.1638 1.77907C13.0323 1.90176 12.8533 2.04648 12.627 2.21322C12.4006 2.37996 12.1376 2.55771 11.8378 2.74647C11.538 2.93522 11.2168 3.12084 10.8743 3.30331C10.8009 3.34106 10.7703 3.41656 10.7825 3.52982L11.0578 8.21108C10.5194 8.09782 9.95659 8.0412 9.36929 8.0412H9.12153L10.5439 9.52298C11.174 9.58587 11.7583 9.75261 12.2966 10.0232C12.835 10.2938 13.303 10.6225 13.7007 11.0095C14.0983 11.3965 14.4057 11.8023 14.6229 12.2269C14.8401 12.6517 14.9487 13.0528 14.9487 13.4304C14.9487 13.4555 14.9487 13.4791 14.9487 13.5011C14.9487 13.5231 14.9487 13.5467 14.9487 13.5718L15.9397 14.7422C16.0927 14.6478 16.2226 14.5062 16.3297 14.3175C16.4368 14.1287 16.4903 13.896 16.4903 13.6191C16.4903 12.9584 16.3282 12.3088 16.0039 11.6702C15.6797 11.0315 15.2209 10.4495 14.6275 9.92406C14.034 9.3987 13.3397 8.97557 12.5444 8.65467L12.2415 4.22824C12.627 3.96397 13.0002 3.69499 13.3612 3.42129C13.7221 3.14758 14.0432 2.88174 14.3246 2.62377C14.6061 2.3658 14.8233 2.12985 14.9762 1.91592C15.2148 1.60761 15.3341 1.30245 15.3341 1.00043C15.3341 0.710999 15.2347 0.471904 15.0359 0.283141C14.837 0.0943803 14.5785 0 14.2604 0H4.47817C4.15394 0 3.89393 0.0943803 3.69817 0.283141C3.5024 0.471904 3.40452 0.710999 3.40452 1.00043ZM0.201885 2.60489L16.7932 19.65C16.9339 19.7947 17.1021 19.867 17.2979 19.867C17.4936 19.867 17.6588 19.7947 17.7934 19.65C17.928 19.5053 17.9968 19.3338 17.9999 19.1356C18.003 18.9374 17.9341 18.766 17.7934 18.6212L1.21131 1.57615C1.0706 1.43144 0.902362 1.35908 0.706597 1.35908C0.51083 1.35908 0.342593 1.43144 0.201885 1.57615C0.0672951 1.71457 0 1.88603 0 2.09052C0 2.29501 0.0672951 2.46647 0.201885 2.60489Z" fill="black"/>
</svg>
